<svg width="239" height="35" viewBox="0 0 239 35" fill="none" xmlns="http://www.w3.org/2000/svg">
<rect width="48" height="35" rx="10" fill="#5A1BEE"/>
<path d="M13.6579 7L26.9784 27.9673H30.3103L16.9593 7H13.6579Z" fill="white"/>
<path d="M26.9784 27.9673L36.9494 11.1958H40.3L30.3103 27.9673H26.9784Z" fill="white"/>
<path d="M20.3216 27.9673L10.3319 11.1958H7L16.9592 27.9673H20.3216Z" fill="white"/>
<path d="M30.3102 7L16.9592 27.9673H20.3216L33.6362 7H30.3102Z" fill="white"/>
<path d="M93.2334 29H88.8828L86.3633 19.332C86.2461 18.8926 86.0166 17.8086 85.6748 16.0801L84.9131 19.3613L82.3643 29H78.0137L73.9121 13.1504H77.7793L80.3867 25.2646L80.5918 24.1807L80.958 22.4668L83.4482 13.1504H87.8574L90.2891 22.4668C90.4258 22.9746 90.626 23.9072 90.8896 25.2646L91.2998 23.3311L93.585 13.1504H97.3936L93.2334 29ZM99.4443 10.2939V7.26172H103.561V10.2939H99.4443ZM99.4443 29V13.1504H103.561V29H99.4443ZM121.153 24.3711C121.153 25.9043 120.523 27.1104 119.264 27.9893C118.014 28.8584 116.28 29.293 114.063 29.293C111.886 29.293 110.216 28.9512 109.054 28.2676C107.901 27.5742 107.135 26.5 106.754 25.0449L110.372 24.5029C110.577 25.2549 110.929 25.7871 111.427 26.0996C111.935 26.4121 112.813 26.5684 114.063 26.5684C115.216 26.5684 116.056 26.4219 116.583 26.1289C117.11 25.8359 117.374 25.377 117.374 24.752C117.374 24.2441 117.159 23.8438 116.729 23.5508C116.31 23.248 115.592 22.9941 114.576 22.7891C112.252 22.3301 110.685 21.9053 109.874 21.5146C109.063 21.1143 108.443 20.6016 108.014 19.9766C107.594 19.3418 107.384 18.5654 107.384 17.6475C107.384 16.1338 107.965 14.957 109.127 14.1172C110.299 13.2676 111.954 12.8428 114.093 12.8428C115.978 12.8428 117.491 13.209 118.634 13.9414C119.786 14.6738 120.504 15.7334 120.787 17.1201L117.14 17.501C117.022 16.8564 116.734 16.3779 116.275 16.0654C115.816 15.7432 115.089 15.582 114.093 15.582C113.116 15.582 112.384 15.709 111.896 15.9629C111.407 16.207 111.163 16.6221 111.163 17.208C111.163 17.667 111.349 18.0332 111.72 18.3066C112.101 18.5703 112.735 18.79 113.624 18.9658C114.864 19.2197 115.963 19.4834 116.92 19.7568C117.887 20.0205 118.658 20.3379 119.234 20.709C119.82 21.0801 120.284 21.5586 120.626 22.1445C120.978 22.7207 121.153 23.4629 121.153 24.3711ZM130.982 29.293C128.6 29.293 126.769 28.5898 125.489 27.1836C124.21 25.7676 123.57 23.707 123.57 21.002C123.57 18.3848 124.22 16.373 125.519 14.9668C126.817 13.5605 128.658 12.8574 131.041 12.8574C133.316 12.8574 135.055 13.6143 136.256 15.1279C137.457 16.6318 138.058 18.8389 138.058 21.749V21.8662H127.892C127.892 23.4092 128.175 24.5762 128.741 25.3672C129.317 26.1484 130.133 26.5391 131.188 26.5391C132.643 26.5391 133.561 25.9092 133.941 24.6494L137.823 24.9863C136.7 27.8574 134.42 29.293 130.982 29.293ZM130.982 15.4502C130.016 15.4502 129.269 15.7871 128.741 16.4609C128.224 17.1348 127.95 18.0771 127.921 19.2881H134.073C133.995 18.0088 133.688 17.0518 133.15 16.417C132.613 15.7725 131.891 15.4502 130.982 15.4502ZM158.331 29H153.98L151.461 19.332C151.344 18.8926 151.114 17.8086 150.772 16.0801L150.011 19.3613L147.462 29H143.111L139.01 13.1504H142.877L145.484 25.2646L145.689 24.1807L146.056 22.4668L148.546 13.1504H152.955L155.387 22.4668C155.523 22.9746 155.724 23.9072 155.987 25.2646L156.397 23.3311L158.683 13.1504H162.491L158.331 29ZM179.601 21.0605C179.601 23.6289 178.888 25.6455 177.462 27.1104C176.036 28.5654 174.063 29.293 171.544 29.293C169.073 29.293 167.135 28.5605 165.729 27.0957C164.322 25.6309 163.619 23.6191 163.619 21.0605C163.619 18.5117 164.322 16.5098 165.729 15.0547C167.135 13.5898 169.103 12.8574 171.632 12.8574C174.22 12.8574 176.192 13.5654 177.55 14.9814C178.917 16.3877 179.601 18.4141 179.601 21.0605ZM175.294 21.0605C175.294 19.1758 174.986 17.8086 174.371 16.959C173.756 16.1094 172.862 15.6846 171.69 15.6846C169.19 15.6846 167.94 17.4766 167.94 21.0605C167.94 22.8281 168.243 24.1758 168.849 25.1035C169.464 26.0215 170.348 26.4805 171.5 26.4805C174.029 26.4805 175.294 24.6738 175.294 21.0605ZM182.882 29V16.8711C182.882 16.002 182.867 15.2793 182.838 14.7031C182.818 14.1172 182.794 13.5996 182.765 13.1504H186.69C186.72 13.3262 186.759 13.8633 186.808 14.7617C186.856 15.6504 186.881 16.2412 186.881 16.5342H186.939C187.34 15.4209 187.696 14.6396 188.009 14.1904C188.321 13.7314 188.692 13.3945 189.122 13.1797C189.552 12.9551 190.089 12.8428 190.733 12.8428C191.261 12.8428 191.686 12.916 192.008 13.0625V16.5049C191.344 16.3584 190.758 16.2852 190.25 16.2852C189.225 16.2852 188.424 16.7002 187.848 17.5303C187.281 18.3604 186.998 19.5908 186.998 21.2217V29H182.882ZM204.693 29L200.46 21.8223L198.688 23.0527V29H194.571V7.26172H198.688V19.7129L204.342 13.1504H208.766L203.199 19.332L209.19 29H204.693ZM224.63 24.3711C224.63 25.9043 224 27.1104 222.74 27.9893C221.49 28.8584 219.757 29.293 217.54 29.293C215.362 29.293 213.692 28.9512 212.53 28.2676C211.378 27.5742 210.611 26.5 210.23 25.0449L213.849 24.5029C214.054 25.2549 214.405 25.7871 214.903 26.0996C215.411 26.4121 216.29 26.5684 217.54 26.5684C218.692 26.5684 219.532 26.4219 220.06 26.1289C220.587 25.8359 220.851 25.377 220.851 24.752C220.851 24.2441 220.636 23.8438 220.206 23.5508C219.786 23.248 219.068 22.9941 218.053 22.7891C215.729 22.3301 214.161 21.9053 213.351 21.5146C212.54 21.1143 211.92 20.6016 211.49 19.9766C211.07 19.3418 210.86 18.5654 210.86 17.6475C210.86 16.1338 211.441 14.957 212.604 14.1172C213.775 13.2676 215.431 12.8428 217.569 12.8428C219.454 12.8428 220.968 13.209 222.11 13.9414C223.263 14.6738 223.98 15.7334 224.264 17.1201L220.616 17.501C220.499 16.8564 220.211 16.3779 219.752 16.0654C219.293 15.7432 218.565 15.582 217.569 15.582C216.593 15.582 215.86 15.709 215.372 15.9629C214.884 16.207 214.64 16.6221 214.64 17.208C214.64 17.667 214.825 18.0332 215.196 18.3066C215.577 18.5703 216.212 18.79 217.101 18.9658C218.341 19.2197 219.439 19.4834 220.396 19.7568C221.363 20.0205 222.135 20.3379 222.711 20.709C223.297 21.0801 223.761 21.5586 224.103 22.1445C224.454 22.7207 224.63 23.4629 224.63 24.3711Z" fill="white"/>
<path d="M227.911 29V24.5322H232.145V29H227.911Z" fill="#5A1BEE"/>
</svg>
